<?xml version="1.0" encoding="utf-8"?>
<!-- Generator: Adobe Illustrator 16.0.0, SVG Export Plug-In . SVG Version: 6.00 Build 0)  -->
<!DOCTYPE svg PUBLIC "-//W3C//DTD SVG 1.1//EN" "http://www.w3.org/Graphics/SVG/1.1/DTD/svg11.dtd">
<svg version="1.1" id="Layer_1" xmlns="http://www.w3.org/2000/svg" xmlns:xlink="http://www.w3.org/1999/xlink" x="0px" y="0px"
	 width="290.711px" height="326.234px" viewBox="0 0 290.711 326.234" enable-background="new 0 0 290.711 326.234"
	 xml:space="preserve">
<g>
	<path fill="#3498DB" d="M124.783,171.609c47.384,0,85.785-38.438,85.785-85.759c0-47.415-38.401-85.85-85.785-85.85
		C77.359,0,38.989,38.436,38.989,85.85C38.989,133.171,77.359,171.609,124.783,171.609L124.783,171.609z M124.783,171.609"/>
	<path fill="#2C3E50" d="M233.225,197.883c-4.527-9.709-10.239-19.484-17.534-28.796c-3.932-4.987-11.065-10.471-18-14.23
		c-17.929,20.109-43.916,32.854-72.907,32.854c-28.958,0-54.948-12.745-72.874-32.787c-6.739,3.828-13.705,9.312-17.508,14.296
		c-12.319,16.048-31.299,47.188-34.341,89.122c-0.621,8.852,3.571,22.389,10.969,27.54c14.031,9.841,44.343,22.388,107.381,22.388
		c21.826,0,40.218-1.319,55.771-3.434c-6.273-10.565-9.938-22.884-9.938-36.059C164.243,230.307,195.018,198.938,233.225,197.883
		L233.225,197.883z M233.225,197.883"/>
	<path fill="#2ECC71" d="M233.225,211.288c-31.734,0-57.492,25.724-57.492,57.489c0,31.734,25.758,57.457,57.492,57.457
		c31.73,0,57.486-25.723,57.486-57.457C290.711,237.012,264.989,211.288,233.225,211.288L233.225,211.288z M261.587,279.344h-22.155
		v22.19c0,3.666-3.008,6.638-6.671,6.638c-3.666,0-6.639-2.972-6.639-6.638v-22.19h-22.19c-3.665,0-6.636-2.972-6.636-6.638
		c0-3.697,2.971-6.668,6.636-6.668h22.19v-22.159c0-3.665,2.973-6.668,6.639-6.637c3.663,0,6.671,2.972,6.671,6.637v22.159h22.155
		c3.666,0,6.636,2.971,6.671,6.668C268.258,276.372,265.287,279.344,261.587,279.344L261.587,279.344z M261.587,279.344"/>
</g>
</svg>
